<svg width="403" height="74" viewBox="0 0 403 74" fill="none" xmlns="http://www.w3.org/2000/svg">
<rect width="49" height="15" rx="5" transform="matrix(0 -1 -1 0 78 61)" fill="white"/>
<rect width="27" height="15" rx="5" transform="matrix(0 -1 -1 0 54 39)" fill="white"/>
<rect width="38" height="15" rx="5" transform="matrix(0 -1 -1 0 30 50)" fill="white"/>
<path d="M123.752 53V16.6364H132.541V32.0128H133.021L145.041 16.6364H155.393L142.502 32.8651L155.624 53H145.112L136.057 38.7067L132.541 43.1456V53H123.752ZM166.548 53.4616C164.808 53.4616 163.263 53.1716 161.914 52.5916C160.576 51.9998 159.517 51.112 158.735 49.9283C157.966 48.7327 157.581 47.2353 157.581 45.4361C157.581 43.9209 157.847 42.6425 158.38 41.6009C158.913 40.5592 159.647 39.7128 160.582 39.0618C161.517 38.4107 162.594 37.9195 163.813 37.5881C165.033 37.2448 166.335 37.014 167.72 36.8956C169.27 36.7536 170.519 36.6056 171.466 36.4517C172.413 36.286 173.1 36.0552 173.526 35.7592C173.964 35.4515 174.183 35.0194 174.183 34.4631V34.3743C174.183 33.4628 173.869 32.7585 173.242 32.2614C172.614 31.7642 171.768 31.5156 170.703 31.5156C169.554 31.5156 168.631 31.7642 167.933 32.2614C167.234 32.7585 166.79 33.4451 166.601 34.321L158.593 34.0369C158.83 32.3797 159.44 30.9001 160.422 29.598C161.416 28.2841 162.778 27.2543 164.506 26.5085C166.246 25.7509 168.335 25.3722 170.774 25.3722C172.514 25.3722 174.118 25.5793 175.585 25.9936C177.053 26.3961 178.332 26.9879 179.421 27.7692C180.51 28.5386 181.35 29.4856 181.942 30.6101C182.546 31.7346 182.847 33.0189 182.847 34.4631V53H174.68V49.2003H174.467C173.981 50.1236 173.36 50.9048 172.602 51.544C171.857 52.1832 170.975 52.6626 169.957 52.9822C168.951 53.3018 167.814 53.4616 166.548 53.4616ZM169.229 47.7798C170.164 47.7798 171.004 47.5904 171.75 47.2116C172.508 46.8329 173.111 46.312 173.561 45.6491C174.011 44.9744 174.236 44.1932 174.236 43.3054V40.7131C173.987 40.8433 173.686 40.9616 173.33 41.0682C172.987 41.1747 172.608 41.2753 172.194 41.37C171.78 41.4647 171.354 41.5476 170.916 41.6186C170.478 41.6896 170.057 41.7547 169.655 41.8139C168.838 41.9441 168.14 42.1454 167.56 42.4176C166.992 42.6899 166.554 43.045 166.246 43.483C165.95 43.9091 165.802 44.4181 165.802 45.0099C165.802 45.9096 166.122 46.5961 166.761 47.0696C167.412 47.5431 168.235 47.7798 169.229 47.7798ZM196.839 37.446V53H188.156V25.7273H196.413V30.7344H196.715C197.318 29.0653 198.348 27.7573 199.804 26.8104C201.26 25.8516 202.994 25.3722 205.007 25.3722C206.924 25.3722 208.587 25.8042 209.996 26.6683C211.416 27.5206 212.517 28.7161 213.298 30.255C214.092 31.782 214.482 33.5694 214.47 35.6172V53H205.788V37.3217C205.8 35.8066 205.415 34.6229 204.634 33.7706C203.864 32.9183 202.793 32.4922 201.42 32.4922C200.508 32.4922 199.704 32.6934 199.005 33.0959C198.319 33.4865 197.786 34.0488 197.407 34.7827C197.04 35.5166 196.851 36.4044 196.839 37.446ZM219.846 53V16.6364H228.528V30.397H228.706C229.061 29.5684 229.564 28.7694 230.215 28C230.878 27.2306 231.719 26.6032 232.737 26.1179C233.766 25.6207 234.997 25.3722 236.43 25.3722C238.324 25.3722 240.093 25.8693 241.739 26.8636C243.396 27.858 244.733 29.3909 245.751 31.4624C246.769 33.5339 247.278 36.1735 247.278 39.3814C247.278 42.4709 246.787 45.0573 245.805 47.1406C244.834 49.224 243.52 50.7865 241.863 51.8281C240.218 52.8698 238.389 53.3906 236.376 53.3906C235.003 53.3906 233.814 53.1657 232.808 52.7159C231.801 52.2661 230.955 51.6742 230.268 50.9403C229.594 50.2064 229.073 49.4193 228.706 48.5788H228.44V53H219.846ZM228.351 39.3636C228.351 40.8314 228.546 42.1098 228.937 43.1989C229.339 44.2879 229.913 45.1342 230.659 45.7379C231.417 46.3298 232.322 46.6257 233.376 46.6257C234.441 46.6257 235.347 46.3298 236.092 45.7379C236.838 45.1342 237.4 44.2879 237.779 43.1989C238.17 42.1098 238.365 40.8314 238.365 39.3636C238.365 37.8958 238.17 36.6233 237.779 35.5462C237.4 34.469 236.838 33.6345 236.092 33.0426C235.358 32.4508 234.453 32.1548 233.376 32.1548C232.31 32.1548 231.405 32.4448 230.659 33.0249C229.913 33.6049 229.339 34.4335 228.937 35.5107C228.546 36.5878 228.351 37.8722 228.351 39.3636ZM251.828 53V25.7273H260.511V53H251.828ZM256.178 22.549C254.959 22.549 253.912 22.1465 253.036 21.3416C252.16 20.5249 251.722 19.5424 251.722 18.3942C251.722 17.2578 252.16 16.2872 253.036 15.4822C253.912 14.6655 254.959 14.2571 256.178 14.2571C257.41 14.2571 258.457 14.6655 259.321 15.4822C260.197 16.2872 260.635 17.2578 260.635 18.3942C260.635 19.5424 260.197 20.5249 259.321 21.3416C258.457 22.1465 257.41 22.549 256.178 22.549ZM281.538 25.7273V32.1193H263.995V25.7273H281.538ZM267.653 53V24.3423C267.653 22.2353 268.05 20.4893 268.843 19.1044C269.636 17.7076 270.737 16.666 272.145 15.9794C273.554 15.281 275.181 14.9318 277.028 14.9318C278.235 14.9318 279.372 15.0265 280.437 15.2159C281.514 15.3935 282.313 15.5533 282.834 15.6953L281.449 22.0518C281.13 21.9453 280.739 21.8565 280.277 21.7855C279.828 21.7145 279.401 21.679 278.999 21.679C277.981 21.679 277.283 21.9039 276.904 22.3537C276.525 22.8035 276.336 23.419 276.336 24.2003V53H267.653ZM291.024 63.2273C289.982 63.2273 289 63.1444 288.077 62.9787C287.153 62.8248 286.36 62.6177 285.697 62.3572L287.615 56.054C288.467 56.3381 289.237 56.5038 289.923 56.5511C290.622 56.5985 291.219 56.486 291.716 56.2138C292.225 55.9534 292.616 55.4858 292.888 54.8111L293.226 53.9943L283.531 25.7273H292.622L297.647 45.1875H297.931L303.027 25.7273H312.171L301.89 55.6101C301.393 57.1016 300.689 58.4155 299.778 59.5518C298.878 60.7 297.712 61.5997 296.28 62.2507C294.859 62.9018 293.107 63.2273 291.024 63.2273Z" fill="white"/>
</svg>
