<svg width="353" height="73" viewBox="0 0 353 73" fill="none" xmlns="http://www.w3.org/2000/svg">
<rect width="48" height="15" rx="5" transform="matrix(0 -1 -1 0 95 60)" fill="white" fill-opacity="0.85"/>
<rect width="26" height="16" rx="5" transform="matrix(0 -1 -1 0 72 38)" fill="white" fill-opacity="0.85"/>
<rect width="37" height="15" rx="5" transform="matrix(0 -1 -1 0 48 49)" fill="white" fill-opacity="0.85"/>
<path d="M122.161 49V12.6364H129.849V28.6697H130.328L143.414 12.6364H152.629L139.135 28.9183L152.789 49H143.592L133.631 34.0497L129.849 38.6662V49H122.161ZM164.268 49.5149C162.528 49.5149 160.977 49.2131 159.616 48.6094C158.255 47.9938 157.178 47.0883 156.385 45.8928C155.603 44.6854 155.213 43.1821 155.213 41.3828C155.213 39.8677 155.491 38.5952 156.047 37.5653C156.604 36.5355 157.361 35.7069 158.32 35.0795C159.279 34.4522 160.368 33.9787 161.587 33.6591C162.818 33.3395 164.108 33.1146 165.458 32.9844C167.044 32.8187 168.322 32.6648 169.293 32.5227C170.264 32.3688 170.968 32.1439 171.406 31.848C171.844 31.5521 172.063 31.1141 172.063 30.5341V30.4276C172.063 29.303 171.708 28.433 170.998 27.8175C170.299 27.2019 169.305 26.8942 168.015 26.8942C166.653 26.8942 165.57 27.196 164.765 27.7997C163.96 28.3916 163.428 29.1373 163.167 30.0369L156.172 29.4688C156.527 27.8116 157.225 26.3793 158.267 25.1719C159.308 23.9527 160.652 23.0175 162.297 22.3665C163.954 21.7036 165.872 21.3722 168.05 21.3722C169.565 21.3722 171.015 21.5497 172.4 21.9048C173.797 22.2599 175.034 22.8104 176.111 23.5561C177.2 24.3018 178.058 25.2607 178.686 26.4325C179.313 27.5926 179.627 28.9834 179.627 30.6051V49H172.453V45.218H172.24C171.802 46.0703 171.217 46.822 170.483 47.473C169.749 48.1122 168.867 48.6153 167.837 48.9822C166.807 49.3374 165.618 49.5149 164.268 49.5149ZM166.434 44.2947C167.547 44.2947 168.529 44.0758 169.382 43.6378C170.234 43.188 170.903 42.5843 171.388 41.8267C171.873 41.0691 172.116 40.2109 172.116 39.2521V36.358C171.879 36.5118 171.554 36.6539 171.14 36.7841C170.737 36.9025 170.281 37.0149 169.772 37.1214C169.263 37.2161 168.754 37.3049 168.245 37.3878C167.736 37.4588 167.275 37.5239 166.86 37.5831C165.973 37.7133 165.197 37.9205 164.534 38.2045C163.872 38.4886 163.357 38.8733 162.99 39.3587C162.623 39.8321 162.439 40.424 162.439 41.1342C162.439 42.1641 162.812 42.9512 163.558 43.4957C164.315 44.0284 165.274 44.2947 166.434 44.2947ZM193.059 33.233V49H185.495V21.7273H192.704V26.5391H193.023C193.627 24.9529 194.639 23.6982 196.06 22.7749C197.48 21.8397 199.202 21.3722 201.227 21.3722C203.121 21.3722 204.772 21.7865 206.18 22.6151C207.589 23.4437 208.684 24.6274 209.465 26.1662C210.246 27.6932 210.637 29.5161 210.637 31.6349V49H203.073V32.9844C203.085 31.3153 202.659 30.0133 201.795 29.0781C200.931 28.1312 199.741 27.6577 198.226 27.6577C197.208 27.6577 196.308 27.8767 195.527 28.3146C194.758 28.7526 194.154 29.3918 193.716 30.2322C193.29 31.0608 193.071 32.0611 193.059 33.233ZM216.741 49V12.6364H224.305V26.3082H224.535C224.867 25.5743 225.346 24.8286 225.974 24.071C226.613 23.3016 227.441 22.6624 228.459 22.1534C229.489 21.6326 230.768 21.3722 232.295 21.3722C234.283 21.3722 236.118 21.893 237.799 22.9347C239.48 23.9645 240.823 25.5211 241.829 27.6044C242.836 29.6759 243.339 32.2741 243.339 35.3991C243.339 38.4413 242.847 41.0099 241.865 43.1051C240.894 45.1884 239.568 46.7687 237.888 47.8459C236.219 48.9112 234.348 49.4439 232.277 49.4439C230.809 49.4439 229.56 49.2012 228.53 48.7159C227.512 48.2306 226.678 47.621 226.027 46.8871C225.376 46.1413 224.879 45.3897 224.535 44.6321H224.198V49H216.741ZM224.145 35.3636C224.145 36.9853 224.37 38.3999 224.819 39.6072C225.269 40.8146 225.92 41.7557 226.773 42.4304C227.625 43.0933 228.661 43.4247 229.88 43.4247C231.111 43.4247 232.153 43.0874 233.005 42.4126C233.857 41.7261 234.502 40.7791 234.94 39.5717C235.39 38.3525 235.615 36.9498 235.615 35.3636C235.615 33.7893 235.396 32.4044 234.958 31.2088C234.52 30.0133 233.875 29.0781 233.023 28.4034C232.17 27.7287 231.123 27.3913 229.88 27.3913C228.649 27.3913 227.607 27.7169 226.755 28.3679C225.914 29.0189 225.269 29.9422 224.819 31.1378C224.37 32.3333 224.145 33.742 224.145 35.3636ZM248.386 49V21.7273H255.95V49H248.386ZM252.185 18.2116C251.061 18.2116 250.096 17.8388 249.291 17.093C248.498 16.3355 248.102 15.4299 248.102 14.3764C248.102 13.3348 248.498 12.4411 249.291 11.6953C250.096 10.9377 251.061 10.5589 252.185 10.5589C253.31 10.5589 254.269 10.9377 255.062 11.6953C255.867 12.4411 256.269 13.3348 256.269 14.3764C256.269 15.4299 255.867 16.3355 255.062 17.093C254.269 17.8388 253.31 18.2116 252.185 18.2116ZM276.675 21.7273V27.4091H259.843V21.7273H276.675ZM263.695 49V19.7564C263.695 17.7796 264.08 16.1401 264.85 14.8381C265.631 13.536 266.696 12.5594 268.046 11.9084C269.395 11.2573 270.928 10.9318 272.644 10.9318C273.804 10.9318 274.864 11.0206 275.823 11.1982C276.793 11.3757 277.515 11.5355 277.989 11.6776L276.639 17.3594C276.343 17.2647 275.977 17.1759 275.539 17.093C275.112 17.0102 274.674 16.9688 274.225 16.9688C273.112 16.9688 272.337 17.2292 271.899 17.75C271.461 18.259 271.242 18.9751 271.242 19.8984V49H263.695ZM285.966 59.2273C285.007 59.2273 284.107 59.1503 283.267 58.9964C282.438 58.8544 281.752 58.6709 281.207 58.446L282.912 52.7997C283.799 53.072 284.598 53.2199 285.309 53.2436C286.031 53.2673 286.652 53.1016 287.173 52.7464C287.706 52.3913 288.138 51.7876 288.469 50.9354L288.913 49.7812L279.13 21.7273H287.084L292.73 41.7557H293.015L298.714 21.7273H306.722L296.122 51.9474C295.613 53.4152 294.92 54.6937 294.044 55.7827C293.18 56.8835 292.085 57.7299 290.76 58.3217C289.434 58.9254 287.836 59.2273 285.966 59.2273Z" fill="white" fill-opacity="0.85"/>
</svg>
